<?xml version="1.0" encoding="UTF-8" standalone="no"?>
<!-- Created with Inkscape (http://www.inkscape.org/) -->

<svg
   xmlns:dc="http://purl.org/dc/elements/1.1/"
   xmlns:cc="http://creativecommons.org/ns#"
   xmlns:rdf="http://www.w3.org/1999/02/22-rdf-syntax-ns#"
   xmlns:svg="http://www.w3.org/2000/svg"
   xmlns="http://www.w3.org/2000/svg"
   xmlns:sodipodi="http://sodipodi.sourceforge.net/DTD/sodipodi-0.dtd"
   xmlns:inkscape="http://www.inkscape.org/namespaces/inkscape"
   width="500mm"
   height="120mm"
   viewBox="0 0 500 120"
   version="1.1"
   id="svg8"
   inkscape:version="0.92.3 (2405546, 2018-03-11)"
   sodipodi:docname="OpenXDay-Logo.svg">
  <defs
     id="defs2">
    <filter
       style="color-interpolation-filters:sRGB"
       inkscape:label="Invert"
       id="filter881">
      <feColorMatrix
         type="hueRotate"
         values="180"
         result="color1"
         id="feColorMatrix877" />
      <feColorMatrix
         values="-1 0 0 0 1 0 -1 0 0 1 0 0 -1 0 1 -0.21 -0.72 -0.07 2 0 "
         result="color2"
         id="feColorMatrix879" />
    </filter>
  </defs>
  <sodipodi:namedview
     id="base"
     pagecolor="#ffffff"
     bordercolor="#666666"
     borderopacity="1.0"
     inkscape:pageopacity="0.0"
     inkscape:pageshadow="2"
     inkscape:zoom="0.175"
     inkscape:cx="593.81328"
     inkscape:cy="620.32352"
     inkscape:document-units="mm"
     inkscape:current-layer="g1009"
     showgrid="false"
     inkscape:window-width="1718"
     inkscape:window-height="1368"
     inkscape:window-x="1713"
     inkscape:window-y="0"
     inkscape:window-maximized="0" />
  <metadata
     id="metadata5">
    <rdf:RDF>
      <cc:Work
         rdf:about="">
        <dc:format>image/svg+xml</dc:format>
        <dc:type
           rdf:resource="http://purl.org/dc/dcmitype/StillImage" />
        <dc:title></dc:title>
      </cc:Work>
    </rdf:RDF>
  </metadata>
  <g
     inkscape:label="Ebene 1"
     inkscape:groupmode="layer"
     id="layer1"
     transform="translate(0,-177)">
    <g
       id="g1009"
       style="fill:#008ac9;fill-opacity:1;stroke:none;stroke-width:0;stroke-miterlimit:4;stroke-dasharray:none;stroke-opacity:1"
       transform="matrix(0.11085747,0,0,0.11085747,215.14287,172.61971)">
      <g
         id="g1024"
         transform="matrix(2.5791426,0,0,2.8035341,2806.1764,4244.8206)">
        <path
           inkscape:connector-curvature="0"
           id="path985"
           d="m -1742.1426,-1189.3646 c -1.2611,-0.1535 -5.7856,-0.5243 -10.0542,-0.8242 -8.601,-0.6041 -11.4335,-0.9258 -15.3458,-1.743 -1.4552,-0.3039 -3.2749,-0.6503 -4.0436,-0.7697 -0.9392,-0.1459 -1.7517,-0.5923 -2.4764,-1.3608 -0.5933,-0.629 -2.2366,-1.9065 -3.6519,-2.8389 -3.8119,-2.5113 -5.8217,-5.2311 -9.5547,-12.9302 -1.7299,-3.5678 -3.3022,-7.1219 -3.494,-7.898 -0.1918,-0.7761 -0.5237,-7.6817 -0.7379,-15.3458 -0.2141,-7.6641 -0.5494,-19.3322 -0.7452,-25.9292 -0.4873,-16.4196 -0.4187,-41.5223 0.1552,-56.7972 0.2624,-6.985 0.3975,-14.2875 0.3,-16.2278 -0.1109,-2.2091 -0.021,-4.0552 0.2403,-4.9389 0.2296,-0.7761 0.5597,-2.8398 0.7337,-4.5861 0.1739,-1.7462 0.5571,-4.2862 0.8516,-5.6444 0.2945,-1.3582 0.6935,-4.2951 0.8867,-6.5264 0.3721,-4.2994 1.2633,-7.8966 4.2823,-17.2861 2.6887,-8.3625 5.2206,-11.5714 11.433,-14.4907 1.5523,-0.7293 3.8541,-1.6703 5.1153,-2.0911 1.2612,-0.4207 2.5395,-0.9856 2.8407,-1.2553 0.7624,-0.6829 15.2437,-2.3142 22.5593,-2.5414 12.4414,-0.3864 30.0302,-0.4469 34.5722,-0.1189 4.6594,0.3365 4.8657,0.3872 9.525,2.3382 2.6194,1.0968 6.0288,2.4656 7.5764,3.0417 3.8998,1.4517 4.7937,2.0794 7.6401,5.3651 3.6481,4.211 6.9567,9.1217 8.3137,12.3392 1.3756,3.2616 3.5442,10.5643 5.0689,17.0694 1.3042,5.5643 1.924,13.9397 1.5607,21.0896 -0.138,2.7164 -0.2806,10.4158 -0.3169,17.1097 -0.044,8.1978 -0.2172,13.0301 -0.5292,14.803 -0.3608,2.0497 -0.4039,5.4063 -0.1948,15.1694 0.4147,19.3638 0.3781,31.8801 -0.1046,35.8207 -0.6806,5.5556 -1.5059,17.6083 -1.5015,21.9294 0,2.1657 -0.2287,5.1534 -0.513,6.6393 -0.5644,2.9498 -3.7225,12.5807 -4.8522,14.7971 -2.1884,4.2935 -10.5216,10.0435 -16.4624,11.3591 -3.7542,0.8315 -13.456,2.2297 -15.539,2.2396 -1.0541,0.01 -3.3197,0.1891 -5.0349,0.409 -2.2898,0.2937 -3.6336,0.2965 -5.0572,0.011 -1.5482,-0.3109 -3.377,-0.2495 -9.0763,0.305 -7.3931,0.7191 -10.4574,0.7851 -14.3694,0.309 z m 10.8313,-54.3671 c 1.6567,-0.7152 4.8009,-2.7605 6.0453,-3.9326 2.0266,-1.9088 3.4363,-5.4285 4.1177,-10.2818 0.1361,-0.9701 0.3053,-7.0026 0.3759,-13.4055 0.071,-6.4029 0.2031,-18.3092 0.2946,-26.4583 0.091,-8.1492 0.035,-19.1823 -0.1256,-24.5181 -0.2761,-9.1744 -0.3443,-9.8643 -1.2549,-12.7 -1.6693,-5.1982 -2.5039,-6.3358 -5.6798,-7.7406 -2.6129,-1.1558 -5.2499,-1.5979 -6.7859,-1.1378 -1.9941,0.5975 -3.9547,2.1607 -5.8168,4.638 -2.7488,3.6566 -2.7054,3.266 -2.8628,25.79 -0.076,10.946 -0.2701,25.7755 -0.4301,32.9546 -0.6152,27.5856 -0.2068,31.8207 3.3512,34.7565 2.5286,2.0864 6.5119,3.0108 8.7712,2.0356 z m 85.3133,53.6813 c -5.1899,-0.8194 -7.7941,-2.6057 -8.8226,-6.0519 -0.9405,-3.151 -1.2661,-25.0105 -0.821,-55.141 0.518,-35.0792 0.5185,-34.1474 -0.034,-58.0319 -0.4092,-17.6848 -0.4104,-22.1292 -0.01,-28.2223 0.2924,-4.4323 0.4818,-13.926 0.4891,-24.5241 l 0.012,-17.2922 1.1612,-2.3604 c 1.4591,-2.9652 3.1604,-4.4421 7.0844,-6.1494 l 3.0433,-1.3241 7.2319,-0.043 c 3.9775,-0.024 9.5338,-0.2321 12.3472,-0.4633 8.2178,-0.6753 31.168,-1.127 37.5708,-0.7394 8.4586,0.512 12.6736,0.8951 16.5805,1.507 1.9403,0.3039 5.4328,0.7373 7.7612,0.9631 5.4429,0.5279 6.4282,0.7878 10.0845,2.6605 1.6659,0.8533 3.2685,1.5514 3.5613,1.5514 1.3525,0 8.2664,5.2132 12.198,9.1974 3.6162,3.6646 6.3078,9.9754 7.738,18.1429 0.5297,3.0245 0.6055,5.4905 0.5316,17.2861 -0.054,8.6973 -0.2789,15.8404 -0.6099,19.4184 -0.2881,3.113 -0.498,7.7962 -0.4665,10.4069 0.072,6.0073 -0.8931,17.3362 -1.8572,21.792 -1.4325,6.6207 -3.8068,12.6044 -7.4726,18.8326 -4.1671,7.08 -6.9093,9.7198 -13.4766,12.9733 -5.9029,2.9245 -11.6947,4.1661 -20.8139,4.4623 -3.1044,0.1008 -7.7082,0.048 -10.2305,-0.1182 -2.5224,-0.1657 -5.3799,-0.179 -6.35,-0.029 -0.9702,0.1497 -3.907,0.4276 -6.5264,0.6176 -5.6465,0.4097 -6.3103,0.5685 -6.5085,1.5568 -0.5686,2.8342 -0.7235,9.1516 -0.7235,29.503 0,22.7556 -0.011,23.1283 -0.7373,24.5127 -0.5794,1.1046 -1.1084,1.5472 -2.4695,2.066 -3.2972,1.2569 -4.57,1.5715 -8.0821,1.9981 -7.1898,0.8734 -28.064,1.5667 -31.3846,1.0424 z m 53.2025,-108.7964 c 1.4595,-0.2793 3.818,-1.0457 5.2413,-1.7033 2.4141,-1.1155 2.6613,-1.3357 3.6849,-3.2847 1.5354,-2.9232 1.9125,-4.2859 2.2685,-8.1972 0.171,-1.8792 0.483,-5.2425 0.6932,-7.4738 0.5399,-5.7313 0.265,-14.5827 -0.5096,-16.4042 -0.821,-1.9306 -2.4278,-3.5006 -4.5795,-4.4744 -1.6954,-0.7673 -2.204,-0.8141 -8.332,-0.7661 -7.0411,0.055 -8.2817,0.2982 -8.8258,1.7294 -0.5527,1.4537 -0.4625,39.2018 0.094,39.5599 0.5267,0.3386 5.3396,1.4002 6.6718,1.4717 0.5165,0.028 2.1332,-0.1781 3.5926,-0.4573 z m 426.9154,108.762 c -0.5821,-0.1873 -3.8543,-0.4647 -7.2717,-0.6165 -5.5485,-0.2464 -6.3507,-0.3608 -7.4971,-1.0694 -1.5411,-0.9524 -1.794,-1.7846 -1.4679,-4.8303 0.2863,-2.6729 0.8412,-4.3588 4.6902,-14.2492 1.5479,-3.9776 3.0829,-8.1652 3.4111,-9.3057 0.3282,-1.1406 1.6994,-4.4515 3.047,-7.3575 1.3476,-2.906 2.746,-6.1797 3.1076,-7.2748 0.3615,-1.0952 1.1326,-3.0231 1.7134,-4.2842 0.5809,-1.2612 1.3991,-3.3678 1.8185,-4.6814 0.4192,-1.3135 1.4529,-3.5564 2.297,-4.9841 0.8442,-1.4278 1.813,-3.4487 2.1531,-4.4909 0.3401,-1.0423 1.1463,-2.7682 1.7914,-3.8353 1.0278,-1.7001 3.802,-8.5119 9.5543,-23.4597 0.896,-2.3284 2.499,-6.1817 3.5623,-8.563 l 1.9332,-4.3297 -1.1655,-2.7259 c -0.641,-1.4992 -3.1386,-6.8534 -5.5503,-11.8981 -6.9365,-14.5099 -12.477,-27.5695 -17.3098,-40.8007 -2.8652,-7.8443 -5.0482,-13.3018 -9.2873,-23.2184 -6.9761,-16.3195 -7.0245,-16.7225 -2.0531,-17.0992 5.759,-0.4363 21.405,-0.8373 22.4144,-0.5744 0.5892,0.1534 2.7123,0.1128 4.7181,-0.09 2.6691,-0.2704 4.6562,-0.2572 7.4116,0.049 2.0707,0.2302 4.8688,0.4273 6.218,0.4378 2.8699,0.022 5.2736,0.8346 6.2082,2.0975 0.8526,1.1521 3.393,8.4811 5.6251,16.2278 0.9783,3.3955 2.5402,7.8405 3.4708,9.8777 1.5726,3.4428 4.8279,12.7348 6.2878,17.9483 l 0.63,2.2497 2.7876,-8.2469 c 1.5332,-4.5358 3.3931,-9.6375 4.1331,-11.3371 0.7401,-1.6997 2.1426,-5.8598 3.1168,-9.2448 2.9844,-10.3696 5.0352,-15.1944 7.7637,-18.2659 l 1.3343,-1.5019 7.6895,0.1269 c 4.2293,0.07 8.414,0.2389 9.2994,0.3758 1.0387,0.1607 2.2229,0.074 3.3382,-0.2444 3.4701,-0.9904 22.3848,0.072 25.2013,1.4154 0.758,0.3616 0.9602,0.7285 1.0459,1.8978 0.1305,1.7825 -1.8401,7.3147 -5.1366,14.4202 -2.2764,4.9067 -4.2818,9.9994 -8.196,20.8139 -4.747,13.1151 -10.4447,26.8294 -16.0488,38.6292 -3.643,7.6705 -8.2956,18.2737 -8.2956,18.9056 0,0.189 0.8545,2.3229 1.8989,4.742 1.0444,2.419 3.1223,7.6526 4.6176,11.6301 3.3088,8.8013 6.9251,17.7311 8.267,20.4134 0.547,1.0934 1.1964,2.623 1.4432,3.3991 0.2468,0.7762 1.2873,2.8399 2.3123,4.5862 1.025,1.7462 2.1381,4.0481 2.4736,5.1152 0.3354,1.0672 1.2075,3.2897 1.9379,4.9389 0.7304,1.6493 1.6009,3.8718 1.9343,4.9389 0.3334,1.0672 1.5539,4.004 2.7122,6.5264 1.1582,2.5224 2.4659,5.7767 2.906,7.2319 0.44,1.4553 2.1693,6.1656 3.843,10.4674 3.4985,8.9928 4.1067,11.0754 4.1067,14.0633 0,1.822 -0.1318,2.2813 -0.8478,2.954 -0.4663,0.4381 -1.4585,0.9424 -2.2049,1.1208 -0.7463,0.1783 -10.4057,0.4053 -21.4653,0.5044 -22.6595,0.203 -21.5983,0.3148 -23.548,-2.4811 -0.5613,-0.8049 -2.4871,-5.682 -4.4576,-11.2889 -1.9082,-5.4295 -4.4966,-12.4118 -5.752,-15.5162 -1.2555,-3.1045 -3.6915,-9.5727 -5.4135,-14.3738 -1.7219,-4.8012 -3.2478,-8.6112 -3.3908,-8.4667 -0.2823,0.2851 -7.9031,21.4186 -12.8254,35.5662 -4.2231,12.1381 -4.855,13.5803 -6.693,15.2745 -0.953,0.8784 -2.0354,1.5071 -2.8612,1.6621 -0.7306,0.137 -4.0389,0.065 -7.3519,-0.1598 -4.9981,-0.3394 -6.9241,-0.3193 -11.315,0.1182 -6.0153,0.5994 -7.3286,0.6203 -8.8195,0.1406 z m 223.30844,0.049 c -1.35819,-0.165 -3.9425,-0.4588 -5.74287,-0.6528 -5.10445,-0.55 -7.91326,-2.3185 -8.36478,-5.2668 -0.11056,-0.7219 -0.44101,-2.6619 -0.73431,-4.3112 -0.43773,-2.4613 -0.5758,-8.8772 -0.77057,-35.8069 -0.13049,-18.0446 -0.22483,-35.1896 -0.20962,-38.1 0.0152,-2.9104 0.0145,-19.341 0,-36.5125 -0.0159,-17.1715 -0.0289,-32.9671 -0.0286,-35.1014 2.8e-4,-2.1343 0.18144,-7.0122 0.40256,-10.8398 0.2982,-5.162 0.30025,-8.533 0.008,-13.0528 -0.21675,-3.3514 -0.40291,-8.2366 -0.4137,-10.856 -0.0176,-4.2932 0.0591,-4.9098 0.77868,-6.2567 0.43904,-0.8217 1.18417,-1.747 1.65584,-2.056 1.33216,-0.8729 9.9617,-1.6807 18.71253,-1.7516 4.26861,-0.035 10.77736,-0.262 14.46389,-0.5053 7.06995,-0.4665 17.72804,-0.1029 24.69444,0.8425 1.96304,0.2665 3.25999,0.3042 3.39768,0.099 0.33838,-0.5045 16.43669,0.3292 21.64955,1.1213 1.16416,0.1769 3.57208,0.4938 5.35093,0.7042 3.87322,0.4582 5.97411,1.2024 10.14338,3.593 5.61986,3.2224 10.0015,7.289 11.92058,11.0636 0.40163,0.79 1.33565,2.3298 2.07556,3.4217 2.52988,3.7335 5.4924,12.1801 6.54192,18.6522 0.34028,2.0985 0.65359,7.5716 0.83805,14.6403 0.16207,6.2088 0.50501,13.9082 0.76211,17.1097 0.56487,7.0337 0.53192,33.2145 -0.07,55.5625 -0.35493,13.1797 -0.54112,16.1643 -1.41964,22.7542 -2.07003,15.5278 -2.48479,17.6798 -4.33264,22.4805 -3.10455,8.0654 -5.98223,12.936 -10.68751,18.0889 -4.44479,4.8677 -6.01172,5.8692 -11.77417,7.5258 -4.96697,1.4278 -20.20161,3.0147 -23.99249,2.499 -1.01593,-0.1382 -2.40616,7e-4 -3.87696,0.3878 -2.04875,0.539 -4.1348,0.5897 -19.57916,0.4752 -9.50737,-0.07 -19.90549,-0.021 -23.10695,0.1103 -3.20146,0.1311 -6.93208,0.1033 -8.29028,-0.062 z m 44.91867,-46.0164 c 3.05417,-1.0775 7.64494,-4.547 8.71671,-6.5876 1.74996,-3.3318 2.82074,-36.5047 1.963,-60.8143 -0.21908,-6.2089 -0.54818,-16.0514 -0.73134,-21.8722 -0.34442,-10.9447 -0.65631,-14.1285 -1.51402,-15.4535 -0.27563,-0.4259 -0.60424,-1.1711 -0.73025,-1.6562 -0.12598,-0.4851 -1.22266,-1.9289 -2.43703,-3.2084 -2.70238,-2.8474 -5.91812,-4.3322 -10.16853,-4.6952 -2.49252,-0.2129 -2.73551,-0.1707 -3.67648,0.6379 l -1.00756,0.8657 -0.18091,15.9882 c -0.32759,28.9494 0.16863,95.9158 0.71713,96.7743 0.37384,0.5852 7.40417,0.6018 9.04928,0.021 z m 77.07552,45.6813 c -1.39499,-0.3379 -2.9561,-0.8894 -3.46911,-1.2256 -1.5711,-1.0294 -2.26826,-3.1153 -2.27704,-6.8129 -0.008,-3.4766 0.20962,-4.7044 1.76943,-9.971 0.54596,-1.8433 1.09481,-4.3039 1.21976,-5.4681 0.36093,-3.3636 1.97326,-11.1303 2.6941,-12.9776 0.3624,-0.9289 0.65895,-2.304 0.65895,-3.0558 0,-1.8496 0.85263,-6.1788 1.9044,-9.6695 0.47597,-1.5796 1.51948,-6.1201 2.31891,-10.09 0.79943,-3.9698 2.17117,-10.2404 3.04829,-13.9347 0.87711,-3.6943 2.06957,-9.2568 2.64985,-12.3613 1.04743,-5.6036 1.5095,-7.8196 2.83203,-13.5819 0.3785,-1.6493 0.91108,-4.1893 1.1835,-5.6445 0.77054,-4.1159 1.49313,-7.2916 2.48853,-10.9361 0.50341,-1.8433 1.14042,-5.0183 1.41555,-7.0556 0.27514,-2.0372 1.13606,-6.0854 1.91312,-8.9958 4.40859,-16.5115 4.98253,-19.1297 6.68267,-30.4839 0.21533,-1.4379 0.71391,-3.3429 1.10793,-4.2333 0.39405,-0.8904 1.1066,-3.4445 1.58341,-5.6758 0.81167,-3.7983 2.03874,-7.6441 4.72765,-14.8167 0.61827,-1.6492 1.26742,-3.4749 1.44257,-4.057 0.41254,-1.3709 3.05689,-4.3806 5.18584,-5.9024 0.91997,-0.6576 2.46644,-1.3788 3.43658,-1.6027 2.74236,-0.633 11.29104,-0.8544 19.05,-0.4935 4.43153,0.2061 9.8764,0.2019 14.64028,-0.012 4.8895,-0.219 9.21438,-0.2179 12.17083,0 5.03217,0.3761 10.54457,1.4672 11.31761,2.2402 0.5582,0.5582 1.86386,3.9755 6.44931,16.8795 0.7929,2.2313 1.77948,5.7238 2.19237,7.7611 0.41292,2.0373 0.98721,4.2598 1.27621,4.9389 0.87252,2.0504 1.45637,4.2939 1.69841,6.5263 0.57873,5.3379 1.62486,10.487 6.70151,32.9848 1.46671,6.4999 2.75992,12.8499 2.87383,14.1111 0.11391,1.2612 0.80194,4.6743 1.52891,7.5847 1.3282,5.3176 1.80625,7.4495 3.2035,14.2875 0.41628,2.0373 0.97592,4.4979 1.24365,5.4681 0.26769,0.9701 0.79992,3.5895 1.18272,5.8208 0.3828,2.2313 1.26506,6.1207 1.9606,8.643 2.35955,8.5571 3.70543,14.1573 4.4087,18.3445 0.16295,0.9701 0.78546,3.4195 1.38338,5.443 0.59796,2.0235 1.25123,5.1191 1.45175,6.8791 0.20052,1.7601 0.66389,4.0732 1.02976,5.1404 0.92932,2.7107 2.4838,10.5662 2.49273,12.597 0.004,0.9298 0.40322,2.8017 0.88692,4.1599 1.48459,4.1685 1.92786,6.696 1.92786,10.9929 0,6.143 -0.58248,6.9841 -5.74231,8.2924 -2.78077,0.7051 -3.17066,0.7171 -9.42714,0.2882 -4.99611,-0.3425 -18.15624,-0.9791 -20.99028,-1.0154 -0.19402,0 -2.48443,0.084 -5.08984,0.1925 -6.77104,0.2818 -8.37999,-0.3816 -9.11373,-3.7575 -0.18976,-0.8731 -0.93797,-3.5719 -1.66264,-5.9972 -0.72468,-2.4254 -1.85738,-6.791 -2.51711,-9.7014 -0.65973,-2.9104 -1.83374,-7.7282 -2.60893,-10.7062 -0.77516,-2.9779 -1.56108,-6.7491 -1.74643,-8.3804 -0.39758,-3.499 -1.33321,-5.8284 -2.701,-6.7246 -0.91236,-0.5979 -1.96984,-0.6472 -13.87952,-0.6472 -15.04625,0 -14.64193,-0.081 -15.86328,3.1833 -0.40305,1.0772 -0.7354,2.5479 -0.73862,3.2682 -0.007,1.5592 -1.74028,9.5583 -2.94816,13.605 -0.47184,1.5808 -1.20438,4.5303 -1.62789,6.5545 -0.42351,2.0243 -1.13383,4.9611 -1.57851,6.5264 -0.44467,1.5653 -0.89905,3.7891 -1.00972,4.9419 -0.13119,1.3671 -0.45674,2.4098 -0.93609,2.9986 -0.40422,0.4965 -1.23871,1.58 -1.85441,2.4078 -1.45183,1.9519 -2.56988,2.2406 -8.67485,2.24 -6.09434,-7e-4 -18.29551,0.498 -24.05066,0.9828 -5.82323,0.4904 -7.78689,0.436 -10.82664,-0.3003 z m 76.86827,-89.6045 c 0.82649,-0.6501 0.85612,-0.7954 0.55806,-2.734 -0.6936,-4.5112 -1.74202,-10.6023 -2.08294,-12.1016 -0.35934,-1.5804 -1.6661,-8.6946 -3.07799,-16.757 -0.40771,-2.3283 -1.1557,-7.0886 -1.66218,-10.5784 -0.50645,-3.4898 -1.06169,-6.5854 -1.23381,-6.8791 -0.17215,-0.2938 -0.31704,-0.3754 -0.32201,-0.1813 -0.0325,1.2648 -1.97316,14.4027 -2.84018,19.2263 -0.57545,3.2015 -1.29297,7.4084 -1.59449,9.3487 -0.30155,1.9402 -0.68552,4.0834 -0.8533,4.7625 -0.31901,1.2911 -0.71765,3.6906 -1.78756,10.7597 l -0.64071,4.2333 0.7384,0.7938 c 0.7149,0.7685 0.94816,0.7937 7.33213,0.7937 5.99885,0 6.67244,-0.062 7.46658,-0.6866 z m 133.10143,89.892 c -0.58208,-0.1868 -4.1631,-0.4617 -7.95782,-0.6109 -6.05755,-0.2383 -7.09577,-0.3664 -8.50822,-1.0502 -3.70371,-1.7929 -3.62338,-1.1586 -3.71387,-29.3359 -0.0538,-16.7375 0.0468,-24.3695 0.35091,-26.6348 0.86501,-6.4436 0.30652,-44.0478 -0.66541,-44.8028 -0.24981,-0.194 -1.27547,-2.2577 -2.2793,-4.5861 -1.00379,-2.3283 -3.85191,-8.4402 -6.32912,-13.5819 -7.19684,-14.938 -12.36066,-27.3494 -19.96143,-47.9778 -1.68007,-4.5596 -4.39406,-11.1397 -6.03109,-14.6223 -3.34857,-7.1238 -4.34185,-9.8055 -4.5798,-12.3652 -0.2189,-2.3549 0.65102,-4.0771 2.34876,-4.6499 1.48745,-0.5018 36.93534,-0.57 37.24335,-0.072 0.10601,0.1716 1.78657,0.3119 3.73458,0.3119 2.47018,0 3.89092,0.1657 4.69558,0.5475 1.21105,0.5747 2.55435,2.6786 3.36691,5.2733 0.24302,0.7762 1.07936,2.9142 1.85854,4.7513 0.77914,1.837 2.49876,6.3945 3.82135,10.1277 1.32257,3.7331 2.86587,7.7069 3.42953,8.8307 0.56364,1.1237 1.11087,2.3606 1.21603,2.7487 1.05907,3.9074 4.29796,14.2868 4.45745,14.2843 0.11321,0 1.21832,-2.9784 2.45579,-6.6146 1.23744,-3.6363 2.80081,-7.8814 3.47409,-9.4336 0.67331,-1.5522 2.13864,-5.4416 3.25635,-8.6431 1.11767,-3.2014 2.56293,-7.1548 3.21165,-8.7852 1.93432,-4.8615 5.72322,-12.1185 6.69202,-12.8175 0.83929,-0.6056 1.44113,-0.6238 10.12017,-0.3064 7.57679,0.2771 9.56099,0.2496 11.09028,-0.1538 2.85475,-0.7531 19.31169,0.029 23.12864,1.0986 1.68268,0.4717 1.87522,0.6341 2.25471,1.9006 0.80962,2.7023 -0.60368,7.1583 -5.14887,16.2335 -1.48611,2.9673 -3.96822,8.8264 -5.51582,13.0203 -6.91543,18.7403 -12.66243,32.6505 -18.8117,45.5324 -1.81042,3.7926 -4.59277,9.9109 -6.18296,13.5962 -1.59021,3.6853 -3.02623,6.784 -3.19115,6.8859 -0.16493,0.1019 -0.31158,4.8654 -0.32586,10.5855 -0.0145,5.7201 -0.14482,12.6227 -0.29009,15.3391 -0.14528,2.7164 -0.12605,6.3676 0.0427,8.1139 0.19113,1.9775 0.16743,4.7717 -0.0629,7.4083 -0.20334,2.3284 -0.39204,13.9416 -0.41931,25.8071 -0.0272,11.8656 -0.17255,22.923 -0.32283,24.572 -0.31792,3.488 -0.96929,4.833 -3.14389,6.4916 -2.45533,1.8727 -5.42551,2.5996 -12.05103,2.9492 -3.20145,0.1689 -7.40833,0.4666 -9.34861,0.6616 -4.25947,0.428 -6.00879,0.4215 -7.40833,-0.027 z m -896.58473,-0.6261 c -3.2204,-0.19 -4.8379,-0.4517 -5.9972,-0.9701 l -1.5875,-0.7099 -1.3187,-4.0267 -1.3187,-4.0267 -0.3972,-9.5928 c -0.3033,-7.3274 -0.2987,-10.0029 0.02,-11.3296 0.3144,-1.3106 0.3264,-3.8052 0.049,-10.1628 -0.334,-7.6568 -0.2434,-95.3676 0.1126,-108.9676 0.071,-2.7164 0.2088,-12.2414 0.306,-21.1667 0.1956,-17.9562 0.259,-18.5013 2.4795,-21.3074 1.5179,-1.9181 4.543,-4.4218 6.7705,-5.6035 l 1.7639,-0.9358 16.0514,-0.074 c 8.8283,-0.041 18.7502,-0.1668 22.0486,-0.2797 3.2985,-0.113 8.4579,-0.052 11.4653,0.1352 4.4771,0.2788 6.0754,0.2416 8.8195,-0.2052 2.579,-0.4199 4.6282,-0.4898 8.8917,-0.3032 3.0472,0.1334 6.1225,0.3738 6.8341,0.5343 2.654,0.5986 4.7268,3.7203 5.4012,8.1347 0.2171,1.4208 0.2516,8.1874 0.092,18.1411 -0.2431,15.206 -0.2851,15.9345 -0.9977,17.2861 -1.3902,2.6369 -3.0586,3.5491 -7.4018,4.0467 -3.6812,0.4217 -11.2083,0.4407 -13.6839,0.035 -1.269,-0.2083 -2.1735,-0.1408 -3.3119,0.2471 -1.4061,0.4792 -1.9306,0.4759 -5.1334,-0.032 -5.0164,-0.7954 -7.965,-0.1835 -8.7252,1.8105 -0.1989,0.5218 -0.4317,3.2506 -0.5174,6.064 -0.086,2.8134 -0.4197,8.7884 -0.7422,13.2778 -0.6053,8.4258 -0.4696,10.682 0.6259,10.4109 2.3694,-0.5862 7.0108,-0.7471 18.6681,-0.6471 14.637,0.1255 15.5505,0.2349 17.5886,2.1057 2.0991,1.9269 2.8493,6.4005 2.8522,17.0096 0,7.5789 -1.0996,16.9625 -2.2795,19.4171 -1.5043,3.1293 -2.4592,3.5139 -12.1641,4.8987 -2.6587,0.3793 -6.2303,0.5074 -12.6547,0.4536 l -8.9506,-0.075 -0.8176,0.9718 c -1.3444,1.5977 -1.4314,3.234 -0.9708,18.2546 0.302,9.8458 0.4698,10.7882 1.9726,11.0797 3.3111,0.6424 5.8822,0.7361 9.5039,0.3466 2.1888,-0.2354 7.2341,-0.606 11.2117,-0.8236 6.3772,-0.3488 7.5338,-0.3272 9.7859,0.1828 4.6476,1.0523 5.5471,3.0124 6.1398,13.3797 0.423,7.3987 0.1839,24.0599 -0.3838,26.7435 -0.6174,2.9182 -1.35,4.0416 -3.3241,5.0969 l -1.8109,0.968 h -18.5209 c -10.1864,0 -26.0614,0.1054 -35.2778,0.2343 -9.2163,0.1289 -18.7413,0.1173 -21.1666,-0.026 z m 115.8874,-0.074 c -1.7462,-0.1741 -6.5881,-0.3257 -10.7597,-0.3368 -4.1716,-0.011 -8.024,-0.1024 -8.561,-0.2028 -1.858,-0.3474 -2.1237,-1.52 -2.4257,-10.7071 -0.3137,-9.5429 -0.4572,-27.6867 -0.2721,-34.3958 0.07,-2.5224 0.1075,-5.3005 0.084,-6.1736 -0.023,-0.8732 -0.051,-28.1782 -0.062,-60.6778 -0.013,-40.853 -0.1428,-60.5732 -0.4195,-63.8949 -0.2903,-3.4844 -0.2965,-5.8365 -0.022,-8.5598 0.5469,-5.4341 1.7132,-10.8341 2.5278,-11.7039 0.9439,-1.0079 3.595,-1.6111 6.703,-1.5252 1.443,0.04 3.8937,-0.1285 5.4459,-0.3741 4.6251,-0.7319 26.7242,-0.6856 35.0538,0.073 8.2074,0.7479 9.4706,1.0372 11.2756,2.5822 1.6552,1.4168 2.611,3.622 4.4258,10.2107 0.6963,2.5277 1.904,6.3846 2.6839,8.5708 0.7798,2.1862 1.4179,4.3694 1.4179,4.8515 0,0.4822 0.4158,1.864 0.9241,3.0709 0.8035,1.9078 1.3802,4.4184 2.5703,11.19 0.1535,0.8731 0.7138,2.6194 1.2451,3.8806 1.3415,3.1837 2.2332,5.7429 3.0319,8.7009 0.3753,1.39 1.3203,3.9768 2.1,5.7484 0.7796,1.7717 1.4175,3.4382 1.4175,3.7033 0,0.2651 0.5681,1.8058 1.2625,3.4238 0.6944,1.6179 2.4579,6.0373 3.9189,9.8208 1.461,3.7835 2.8626,7.2758 3.1147,7.7605 0.4581,0.8808 0.4587,0.8804 0.7324,-0.5291 0.647,-3.3313 0.1292,-51.126 -0.6325,-58.3842 -0.5295,-5.0457 -0.4648,-20.6986 0.095,-23.0332 0.2511,-1.047 0.7054,-1.8921 1.1863,-2.2073 1.1553,-0.7569 5.4072,-0.9792 10.7835,-0.5637 3.2184,0.2488 8.6343,0.2598 16.7048,0.034 12.2895,-0.3438 17.3152,-0.1159 19.2251,0.8718 1.2229,0.6323 2.3572,2.7048 2.8149,5.1429 0.8469,4.5109 0.841,3.3415 0.6361,126.4708 -0.057,34.1489 -0.1302,62.5832 -0.163,63.1873 -0.082,1.5009 -1.4944,2.8147 -3.5162,3.2693 -1.1416,0.2567 -7.7071,0.284 -21.0614,0.087 -18.7639,-0.2761 -19.4505,-0.3101 -20.8512,-1.031 -0.7966,-0.4101 -1.964,-1.3328 -2.5942,-2.0506 -1.0947,-1.2467 -3.8827,-6.7626 -4.3522,-8.6102 -0.1226,-0.4824 -1.0223,-2.1407 -1.9995,-3.685 -0.9771,-1.5442 -1.7765,-3.0547 -1.7765,-3.3566 0,-0.3018 -0.3049,-1.1177 -0.6776,-1.8129 -0.3726,-0.6953 -0.8641,-1.9571 -1.0921,-2.8039 -0.2281,-0.8469 -1.0199,-2.7436 -1.7597,-4.215 -0.7398,-1.4713 -2.4084,-5.6047 -3.7082,-9.1853 -3.4918,-9.6196 -6.2938,-16.5105 -8.6404,-21.2494 -0.5554,-1.1216 -1.1969,-2.9472 -1.4257,-4.0569 -0.4541,-2.2038 -1.0534,-3.5492 -2.3278,-5.226 -0.4563,-0.6004 -0.8297,-1.2059 -0.8297,-1.3456 0,-0.1396 -0.3733,-1.0771 -0.8296,-2.0833 -1.4524,-3.2026 -4.0468,-9.9035 -4.2769,-11.0464 -0.1221,-0.6067 -0.6061,-1.6236 -1.0755,-2.2598 -0.4693,-0.6362 -1.3491,-2.3623 -1.955,-3.8358 -0.6058,-1.4736 -1.4041,-2.9923 -1.7739,-3.3749 -0.664,-0.6871 -0.6725,-0.6694 -0.6819,1.4111 -0.01,1.1588 -0.1694,3.615 -0.3648,5.4582 -0.5276,4.9789 -0.7155,46.3172 -0.2878,63.3237 0.4556,18.1186 0.4544,19.0017 -0.027,19.9024 -0.7598,1.4196 -3.2549,1.7251 -15.538,1.9024 -6.3059,0.091 -12.894,0.023 -14.6403,-0.1512 z"
           style="fill:#008ac9;fill-opacity:1;stroke:none;stroke-width:0;stroke-miterlimit:4;stroke-dasharray:none;stroke-opacity:1"
           sodipodi:nodetypes="cccccccsccccccscccccsccccsccccccccscccccccccccccccccccccccccccccccccccccscccccccccccccsccccccccccccccccccccccccscccccccccccscccccccccccccccccccccsccscccccccccccssccccccccccccccccccccccccccccccccccccccccccccccccccccscccccccscccccccccsccccccccccccccccccccccccsscccscccccccscsccccscccscccccccccccccsccccccccsccsccccccccccccccscccccccccccccccccccccccccccccccccccccccccccccccccccccccccccccccccccccccccccccccsscccccsccccccccccccscccccscscccccccccccccccccscccccccscccccccccccc" />
        <path
           style="fill:#008ac9;fill-opacity:1;stroke:none;stroke-width:0;stroke-miterlimit:4;stroke-dasharray:none;stroke-opacity:1"
           d="m -249.08694,-1150.8922 c -29.0978,0.5184 -55.7775,-16.5577 -75.3173,-36.9662 -11.7391,-7.5074 -18.2943,-31.8369 -34.2378,-23.9392 -25.256,8.113 -51.9084,-1.814 -74.6248,-12.8413 -13.2726,-9.4842 -34.1152,-20.4845 -37.6184,-35.4454 13.6882,-11.9433 33.886,-0.2453 49.9675,-7.2042 13.4893,-2.9917 41.0919,-6.9781 25.6119,-25.2049 -16.2301,-31.2842 -20.8185,-71.0663 -2.5263,-102.4867 13.2503,-19.2768 34.6835,-30.0254 51.279,-45.9281 18.0635,-12.7608 38.959,-21.5164 60.8251,-25.0337 8.183,-4.2005 33.5346,-3.4424 29.5555,4.1396 -34.3171,-2.8585 -69.4175,9.4546 -95.5423,31.5819 -11.036,12.247 -27.699,18.4753 -37.4488,32.3173 -10.923,14.0653 -13.9518,32.8144 -15.1278,50.1022 0.5417,22.0566 6.7652,43.9008 18.5438,62.5283 2.4354,19.2277 -22.9363,19.4319 -36.0518,23.782 -13.8555,4.8975 -29.9434,-1.8502 -42.8067,4.0763 7.5111,12.688 22.24,21.3811 35.2842,28.5942 15.6054,8.8929 33.9441,11.9032 51.4047,14.3734 14.6653,0 32.7324,-12.1037 41.0767,6.1661 20.9525,26.1734 49.9151,50.8828 85.2181,51.1205 30.7078,-0.15 61.0063,-12.5362 84.7173,-31.7328 11.5536,-12.9031 24.0146,-26.2079 31.8934,-41.5959 9.6945,-27.2789 17.0015,-58.541 3.7438,-85.9774 -13.3511,-26.3658 -33.0541,-49.2649 -42.7696,-77.4859 -9.0819,-15.6503 -21.9092,-28.734 -31.8503,-43.8426 -3.3558,-10.917 -26.9921,-15.2979 -25.4635,-22.0442 17.909,0.5254 27.3834,17.6233 37.0589,30.2309 11.6746,15.5581 25.0513,30.2332 31.354,49.0827 12.3133,30.6423 39.7499,54.6604 43.9218,88.7111 4.9193,16.268 -4.7854,32.0595 -6.0515,48.1759 -3.2436,20.8968 -19.2686,35.7159 -31.9507,51.3887 -12.9816,15.0046 -31.3902,23.4365 -49.027,31.5228 -13.978,5.097 -28.0007,9.9454 -43.0411,9.8346 z m -6.0135,-13.2013 c -20.4152,-3.5628 -38.4072,-14.4595 -52.8865,-28.9856 -10.5064,-11.3096 -25.6087,-17.4302 -31.5238,-32.618 -9.9129,-10.2047 -25.3692,4.7542 -38.4197,1.1593 -13.9009,0.5659 -29.1096,-2.6555 -41.6341,-9.2582 -16.4047,-1.8547 -24.9182,-23.0841 -1.6626,-19.3061 16.0429,-3.6421 34.1055,-7.6848 45.513,-20.3638 3.1512,-14.474 -14.6764,-26.232 -14.3738,-42.165 -5.5863,-22.9059 -4.6577,-48.4823 6.6694,-69.5423 4.9832,-16.3088 19.336,-25.5469 31.9299,-35.5387 17.1494,-14.8866 38.1481,-25.696 60.2941,-30.8911 17.1242,-2.6381 34.9878,-7.9898 51.7656,-0.6745 26.7987,9.5619 41.4405,35.8119 53.6135,59.7227 13.8235,25.331 29.9103,49.3803 43.5443,74.7984 11.7438,28.2876 15.8575,64.1612 -4.3815,89.7434 -19.8456,25.3868 -44.5106,49.1049 -76.3482,57.9673 -10.2735,4.1028 -21.1846,5.8328 -32.0996,5.9522 z m 9.0544,-5.6414 c 28.3309,-4.665 55.6918,-17.1739 75.1502,-38.726 19.7612,-17.3542 35.2308,-41.9751 32.6117,-69.2702 0.1093,-25.6908 -13.1441,-48.736 -26.4679,-69.7963 -14.1781,-22.5194 -26.1249,-46.3403 -39.9038,-69.0598 -12.7728,-20.6798 -35.7476,-36.8404 -61.0568,-33.0848 -25.2545,2.5253 -50.9386,8.6887 -71.532,24.3154 -16.4767,13.0075 -36.9615,24.4325 -43.0166,46.0855 -11.4424,29.2272 -10.5037,64.3927 6.5497,91.2517 14.0362,17.4164 -10.103,28.0679 -23.6282,33.5164 -7.2764,7.091 -30.6186,2.8544 -30.283,11.3339 19.9613,11.0816 43.9272,15.1485 66.3525,11.6785 12.6696,-7.8496 25.206,-3.1239 30.1602,10.6106 15.5588,15.1145 31.1818,30.9129 49.7487,42.2594 10.6783,6.6258 23.0707,8.8712 35.3153,8.8857 z m -26.5063,-42.3213 c -15.2117,-6.8216 -44.2695,-3.4596 -46.2533,-25.1847 4.1888,-16.7835 10.7141,-34.7744 6.3771,-52.2808 -12.4531,-15.0847 -17.577,-35.2103 -16.3531,-54.7014 0.1539,-23.4301 14.9022,-46.6724 37.5936,-54.132 20.4407,-10.397 44.7013,-10.7369 65.4085,-1.1915 26.3342,14.307 31.75,49.1408 26.1388,76.0927 -3.477,20.4783 -13.8328,41.8643 -34.6813,49.209 -20.5687,6.7787 -13.8908,32.2403 -18.7482,49.0213 -1.0067,8.7751 -11.4676,13.8836 -19.4821,13.1674 z m 6.8635,-6.2016 c 13.5609,-8.4702 6.0155,-28.661 13.7384,-40.9284 -5.0625,-21.3068 25.5221,-16.74 33.6,-32.2631 13.7431,-17.9268 15.3428,-42.2202 14.2908,-64.0298 -2.0313,-19.2073 -13.4243,-40.1239 -34.3363,-42.9747 -24.2551,-7.0282 -51.5314,1.0101 -70.5136,16.9652 -14.8082,15.2619 -15.2119,38.7631 -13.5752,58.7089 1.2153,16.9673 16.4065,29.624 18.2152,44.1742 -4.7117,14.8247 -3.3981,29.1441 -9.282,42.0285 2.6578,16.7164 22.8962,10.6116 34.0678,17.2278 4.4468,1.2556 9.2114,2.2213 13.7949,1.0914 z m -8.4983,-5.8447 c -9.5398,-3.639 -39.6014,-3.8271 -30.0194,-18.3866 12.7682,-4.2512 -6.2016,-14.516 7.1049,-20.9456 -8.8465,-10.0345 2.077,-19.5549 13.8126,-13.8204 13.7841,-1.6675 33.8168,9.5539 23.0597,25.0279 -12.7169,1.6049 6.7506,9.8729 -5.5714,16.4652 -2.3651,0.9225 6.4915,14.1495 -5.3104,12.5841 z m 4.0072,-5.5701 c -10.082,-8.0339 7.49,-12.7242 0.4152,-21.1821 13.558,-10.9239 3.2774,-22.9498 -11.0945,-20.8022 -7.8533,-3.5699 -20.9157,0.7591 -9.3206,9.0406 -2.9967,6.2687 -11.0685,9.2469 -1.9682,15.1449 1.4252,7.5147 -17.7564,10.2129 -2.9616,13.2728 8.5441,0.1477 16.257,6.0725 24.9297,4.526 z m 10.5834,-46.5205 c -15.8313,-14.6641 10.4192,-24.4188 15.3312,-33.6413 -2.0839,-14.7641 -22.6108,-15.8658 -34.5775,-17.5344 -17.6941,-2.2068 -14.4386,16.012 -6.9713,25.0699 6.9985,18.1261 -12.0078,22.3706 -19.0751,6.6571 -8.8576,-13.0152 -13.2898,-29.1765 -13.7556,-44.7961 -0.047,-21.069 12.6578,-41.7032 32.8332,-48.8742 17.6083,-8.2268 40.6271,-10.0838 57.4732,0.9145 20.8963,15.5791 22.612,45.6688 17.2832,69.1201 -2.8318,18.7406 -17.1942,33.7918 -35.2975,38.7334 -3.9769,2.3919 -8.4211,4.8141 -13.2438,4.351 z m 6.8245,-6.4032 c 17.5174,-6.2023 35.6977,-18.3649 36.9579,-38.7626 3.3755,-21.1958 3.8995,-48.3057 -14.6893,-62.862 -16.5404,-10.9096 -38.9931,-6.5643 -56.2824,0.5274 -21.1844,9.2034 -30.113,34.3324 -25.0829,55.9022 1.3109,12.2939 10.4824,36.7893 20.515,35.2987 -1.1084,-14.3585 -15.3747,-41.5606 11.1162,-40.6789 14.5605,2.3568 40.4376,4.4346 41.1656,23.166 2.4681,15.2855 -30.4903,16.1475 -16.2831,28.5171 z m -24.7954,1.8446 c -12.9851,-8.1915 2.2361,-27.5164 -10.172,-36.5892 1.5496,-16.8511 13.4418,3.8495 13.5267,1.6833 10.5939,-16.0098 15.9962,2.5155 10.872,12.7953 -1.7189,6.5767 -4.0225,25.6221 -14.2267,22.1106 z m 4.8572,-6.0331 c 0.2866,-8.5601 10.5646,-25.9028 3.61,-28.6803 -6.3491,4.1814 -14.2744,30.8988 -3.61,28.6803 z m -8.4058,-28.6632 c -2.1815,-7.9495 -3.4722,2.7279 0,0 z m 21.5648,11.167 c -5.8058,-14.9571 23.8125,-8.7043 6.5875,0.086 -2.1532,0.6336 -4.4357,0.3755 -6.5875,-0.086 z"
           id="path983"
           inkscape:connector-curvature="0" />
      </g>
    </g>
  </g>
</svg>
